<svg class="railroad-diagram" height="122" viewBox="0 0 309.0 122" width="309.0" xmlns="http://www.w3.org/2000/svg" xmlns:xlink="http://www.w3.org/1999/xlink">
<style>/* <![CDATA[ */
	svg.railroad-diagram {
		background-color:hsl(30,20%,95%);
	}
	svg.railroad-diagram path {
		stroke-width:3;
		stroke:black;
		fill:rgba(0,0,0,0);
	}
	svg.railroad-diagram text {
		font:bold 14px monospace;
		text-anchor:middle;
	}
	svg.railroad-diagram text.label{
		text-anchor:start;
	}
	svg.railroad-diagram text.comment{
		font:italic 12px monospace;
	}
	svg.railroad-diagram rect{
		stroke-width:3;
		stroke:black;
		fill:hsl(120,100%,90%);
	}
	svg.railroad-diagram rect.group-box {
		stroke: gray;
		stroke-dasharray: 10 5;
		fill: none;
	}

/* ]]> */
</style><g transform="translate(.5 .5)">
<g>
<path d="M20 21v20m10 -20v20m-10 -10h20" /></g><path d="M40 31h10" /><g>
<path d="M50 31h0.0" /><path d="M259.0 31h0.0" /><g class="terminal ">
<path d="M50.0 31h0.0" /><path d="M104.0 31h0.0" /><rect height="22" rx="10" ry="10" width="54" x="50" y="20"></rect><text x="77" y="35">/ada</text></g><path d="M104.0 31h10" /><g>
<path d="M114.0 31h0.0" /><path d="M259.0 31h0.0" /><path d="M114.0 31h20" /><g class="terminal ">
<path d="M134.0 31h17.0" /><path d="M222.0 31h17.0" /><rect height="22" rx="10" ry="10" width="71" x="151" y="20"></rect><text x="186.5" y="35">&lt;item></text></g><path d="M239.0 31h20" /><path d="M114.0 31a10 10 0 0 1 10 10v10a10 10 0 0 0 10 10" /><g class="terminal ">
<path d="M134.0 61h8.5" /><path d="M230.5 61h8.5" /><rect height="22" rx="10" ry="10" width="88" x="142.5" y="50"></rect><text x="186.5" y="65">&lt;recipe></text></g><path d="M239.0 61a10 10 0 0 0 10 -10v-10a10 10 0 0 1 10 -10" /><path d="M114.0 31a10 10 0 0 1 10 10v40a10 10 0 0 0 10 10" /><g class="terminal ">
<path d="M134.0 91h0.0" /><path d="M239.0 91h0.0" /><rect height="22" rx="10" ry="10" width="105" x="134" y="80"></rect><text x="186.5" y="95">&lt;building></text></g><path d="M239.0 91a10 10 0 0 0 10 -10v-40a10 10 0 0 1 10 -10" /></g></g><path d="M259.0 31h10" /><path d="M 269.0 31 h 20 m -10 -10 v 20 m 10 -20 v 20"></path></g></svg>