<svg class="railroad-diagram" height="92" viewBox="0 0 485.5 92" width="485.5" xmlns="http://www.w3.org/2000/svg" xmlns:xlink="http://www.w3.org/1999/xlink">
<style>/* <![CDATA[ */
	svg.railroad-diagram {
		background-color:hsl(30,20%,95%);
	}
	svg.railroad-diagram path {
		stroke-width:3;
		stroke:black;
		fill:rgba(0,0,0,0);
	}
	svg.railroad-diagram text {
		font:bold 14px monospace;
		text-anchor:middle;
	}
	svg.railroad-diagram text.label{
		text-anchor:start;
	}
	svg.railroad-diagram text.comment{
		font:italic 12px monospace;
	}
	svg.railroad-diagram rect{
		stroke-width:3;
		stroke:black;
		fill:hsl(120,100%,90%);
	}
	svg.railroad-diagram rect.group-box {
		stroke: gray;
		stroke-dasharray: 10 5;
		fill: none;
	}

/* ]]> */
</style><g transform="translate(.5 .5)">
<g>
<path d="M20 21v20m10 -20v20m-10 -10h20" /></g><path d="M40 31h10" /><g>
<path d="M50 31h0.0" /><path d="M435.5 31h0.0" /><g class="terminal ">
<path d="M50.0 31h0.0" /><path d="M104.0 31h0.0" /><rect height="22" rx="10" ry="10" width="54" x="50" y="20"></rect><text x="77" y="35">/ada</text></g><path d="M104.0 31h10" /><path d="M114.0 31h10" /><g>
<path d="M124.0 31h0.0" /><path d="M435.5 31h0.0" /><g class="terminal ">
<path d="M124.0 31h0.0" /><path d="M203.5 31h0.0" /><rect height="22" rx="10" ry="10" width="79.5" x="124" y="20"></rect><text x="163.75" y="35">recipes</text></g><path d="M203.5 31h10" /><g>
<path d="M213.5 31h0.0" /><path d="M307.5 31h0.0" /><path d="M213.5 31h20" /><g class="terminal ">
<path d="M233.5 31h4.25" /><path d="M283.25 31h4.25" /><rect height="22" rx="10" ry="10" width="45.5" x="237.75" y="20"></rect><text x="260.5" y="35">for</text></g><path d="M287.5 31h20" /><path d="M213.5 31a10 10 0 0 1 10 10v10a10 10 0 0 0 10 10" /><g class="terminal ">
<path d="M233.5 61h0.0" /><path d="M287.5 61h0.0" /><rect height="22" rx="10" ry="10" width="54" x="233.5" y="50"></rect><text x="260.5" y="65">from</text></g><path d="M287.5 61a10 10 0 0 0 10 -10v-10a10 10 0 0 1 10 -10" /></g><g>
<path d="M307.5 31h0.0" /><path d="M435.5 31h0.0" /><path d="M307.5 31h20" /><g class="terminal ">
<path d="M327.5 31h17.0" /><path d="M398.5 31h17.0" /><rect height="22" rx="10" ry="10" width="54" x="344.5" y="20"></rect><text x="371.5" y="35">item</text></g><path d="M415.5 31h20" /><path d="M307.5 31a10 10 0 0 1 10 10v10a10 10 0 0 0 10 10" /><g class="terminal ">
<path d="M327.5 61h0.0" /><path d="M415.5 61h0.0" /><rect height="22" rx="10" ry="10" width="88" x="327.5" y="50"></rect><text x="371.5" y="65">building</text></g><path d="M415.5 61a10 10 0 0 0 10 -10v-10a10 10 0 0 1 10 -10" /></g></g></g><path d="M435.5 31h10" /><path d="M 445.5 31 h 20 m -10 -10 v 20 m 10 -20 v 20"></path></g></svg>