<svg class="railroad-diagram" height="71" viewBox="0 0 421.5 71" width="421.5" xmlns="http://www.w3.org/2000/svg" xmlns:xlink="http://www.w3.org/1999/xlink">
<style>/* <![CDATA[ */
	svg.railroad-diagram {
		background-color:hsl(30,20%,95%);
	}
	svg.railroad-diagram path {
		stroke-width:3;
		stroke:black;
		fill:rgba(0,0,0,0);
	}
	svg.railroad-diagram text {
		font:bold 14px monospace;
		text-anchor:middle;
	}
	svg.railroad-diagram text.label{
		text-anchor:start;
	}
	svg.railroad-diagram text.comment{
		font:italic 12px monospace;
	}
	svg.railroad-diagram rect{
		stroke-width:3;
		stroke:black;
		fill:hsl(120,100%,90%);
	}
	svg.railroad-diagram rect.group-box {
		stroke: gray;
		stroke-dasharray: 10 5;
		fill: none;
	}

/* ]]> */
</style><g transform="translate(.5 .5)">
<g>
<path d="M20 30v20m10 -20v20m-10 -10h20" /></g><path d="M40 40h10" /><g>
<path d="M50 40h0.0" /><path d="M371.5 40h0.0" /><g class="terminal ">
<path d="M50.0 40h0.0" /><path d="M104.0 40h0.0" /><rect height="22" rx="10" ry="10" width="54" x="50" y="29"></rect><text x="77" y="44">/ada</text></g><path d="M104.0 40h10" /><path d="M114.0 40h10" /><g>
<path d="M124.0 40h0.0" /><path d="M371.5 40h0.0" /><g class="terminal ">
<path d="M124.0 40h0.0" /><path d="M195.0 40h0.0" /><rect height="22" rx="10" ry="10" width="71" x="124" y="29"></rect><text x="159.5" y="44">recipe</text></g><path d="M195.0 40h10" /><g>
<path d="M205.0 40h0.0" /><path d="M290.5 40h0.0" /><path d="M205.0 40a10 10 0 0 0 10 -10v0a10 10 0 0 1 10 -10" /><g>
<path d="M225.0 20h45.5" /></g><path d="M270.5 20a10 10 0 0 1 10 10v0a10 10 0 0 0 10 10" /><path d="M205.0 40h20" /><g class="terminal ">
<path d="M225.0 40h0.0" /><path d="M270.5 40h0.0" /><rect height="22" rx="10" ry="10" width="45.5" x="225" y="29"></rect><text x="247.75" y="44">for</text></g><path d="M270.5 40h20" /></g><path d="M290.5 40h10" /><g class="terminal ">
<path d="M300.5 40h0.0" /><path d="M371.5 40h0.0" /><rect height="22" rx="10" ry="10" width="71" x="300.5" y="29"></rect><text x="336" y="44">&lt;item></text></g></g></g><path d="M371.5 40h10" /><path d="M 381.5 40 h 20 m -10 -10 v 20 m 10 -20 v 20"></path></g></svg>